<svg width="54" height="54" viewBox="0 0 54 54" fill="none" xmlns="http://www.w3.org/2000/svg">
<path id="Vector" d="M42.664 42.664C44.0784 42.664 45.4349 43.2259 46.435 44.226C47.4351 45.2261 47.997 46.5826 47.997 47.997C47.997 49.4114 47.4351 50.7679 46.435 51.768C45.4349 52.7681 44.0784 53.33 42.664 53.33C41.2496 53.33 39.8931 52.7681 38.893 51.768C37.8929 50.7679 37.331 49.4114 37.331 47.997C37.331 45.0372 39.7042 42.664 42.664 42.664ZM0 0H8.71946L11.226 5.333H50.6635C51.3707 5.333 52.0489 5.61393 52.549 6.114C53.0491 6.61407 53.33 7.2923 53.33 7.9995C53.33 8.45281 53.1967 8.90611 53.01 9.33275L43.464 26.585C42.5573 28.2116 40.7975 29.3315 38.7976 29.3315H18.9322L16.5323 33.6779L16.4523 33.9979C16.4523 34.1747 16.5225 34.3442 16.6476 34.4693C16.7726 34.5943 16.9421 34.6645 17.1189 34.6645H47.997V39.9975H15.999C14.5846 39.9975 13.2281 39.4356 12.228 38.4355C11.2279 37.4354 10.666 36.0789 10.666 34.6645C10.666 33.7312 10.906 32.8513 11.306 32.1047L14.9324 25.5717L5.333 5.333H0V0ZM15.999 42.664C17.4134 42.664 18.7699 43.2259 19.77 44.226C20.7701 45.2261 21.332 46.5826 21.332 47.997C21.332 49.4114 20.7701 50.7679 19.77 51.768C18.7699 52.7681 17.4134 53.33 15.999 53.33C14.5846 53.33 13.2281 52.7681 12.228 51.768C11.2279 50.7679 10.666 49.4114 10.666 47.997C10.666 45.0372 13.0392 42.664 15.999 42.664ZM39.9975 23.9985L47.4104 10.666H13.7058L19.9988 23.9985H39.9975Z" fill="#333333"/>
</svg>
