<svg width="30" height="39" viewBox="0 0 41 39" fill="none" xmlns="http://www.w3.org/2000/svg">
<g id="logos:facebook" clip-path="url(#clip0_118_6168)">
<path id="Vector" d="M40.0916 19.2612C40.0916 8.83016 31.3163 0.374023 20.4916 0.374023C9.66689 0.374023 0.891602 8.83016 0.891602 19.2612C0.891602 28.6882 8.05907 36.5021 17.4291 37.9189V24.7208H12.4525V19.2612H17.4291V15.1001C17.4291 10.3665 20.3553 7.75182 24.8324 7.75182C26.9767 7.75182 29.2197 8.12071 29.2197 8.12071V12.7687H26.7483C24.3134 12.7687 23.5541 14.2247 23.5541 15.7184V19.2612H28.99L28.121 24.7208H23.5541V37.9189C32.9241 36.5021 40.0916 28.6884 40.0916 19.2612Z" fill="#1877F2"/>
<path id="Vector_2" d="M28.1209 24.7206L28.9899 19.2611H23.554V15.7183C23.554 14.2244 24.3133 12.7686 26.7481 12.7686H29.2196V8.1206C29.2196 8.1206 26.9766 7.75171 24.8321 7.75171C20.3552 7.75171 17.429 10.3664 17.429 15.1V19.2611H12.4524V24.7206H17.429V37.9188C18.4421 38.0718 19.466 38.1485 20.4915 38.1482C21.5169 38.1485 22.5409 38.0718 23.554 37.9188V24.7206H28.1209Z" fill="white"/>
</g>
<defs>
<clipPath id="clip0_118_6168">
<rect width="39.2" height="37.7743" fill="white" transform="translate(0.891602 0.374023)"/>
</clipPath>
</defs>
</svg>
