<svg width="30" height="39" viewBox="0 0 40 39" fill="none" xmlns="http://www.w3.org/2000/svg">
<g id="flat-color-icons:google">
<path id="Vector" d="M36.0072 16.4439H34.6915V16.3785H19.9915V22.6743H29.2223C27.8756 26.3392 24.257 28.97 19.9915 28.97C14.5795 28.97 10.1915 24.7416 10.1915 19.5264C10.1915 14.3112 14.5795 10.0828 19.9915 10.0828C22.4897 10.0828 24.7625 10.991 26.493 12.4744L31.1129 8.02255C28.1958 5.40275 24.2937 3.78711 19.9915 3.78711C10.9715 3.78711 3.6582 10.8344 3.6582 19.5264C3.6582 28.2184 10.9715 35.2657 19.9915 35.2657C29.0116 35.2657 36.3249 28.2184 36.3249 19.5264C36.3249 18.4711 36.2122 17.441 36.0072 16.4439Z" fill="#FFC107"/>
<path id="Vector_2" d="M5.5415 12.2007L10.9078 15.9934C12.3599 12.5289 15.8764 10.0828 19.9916 10.0828C22.4898 10.0828 24.7626 10.9911 26.4931 12.4746L31.113 8.0224C28.1958 5.40239 24.2938 3.78662 19.9916 3.78662C13.718 3.78662 8.27734 7.19996 5.5415 12.2007Z" fill="#FF3D00"/>
<path id="Vector_3" d="M19.9914 35.2662C24.2103 35.2662 28.0438 33.7103 30.9421 31.18L25.887 27.0575C24.192 28.2998 22.1209 28.9717 19.9914 28.97C15.7431 28.97 12.1359 26.3595 10.777 22.7163L5.45068 26.6711C8.15385 31.7687 13.6435 35.2662 19.9914 35.2662Z" fill="#4CAF50"/>
<path id="Vector_4" d="M36.0076 16.4432H34.6919V16.3779H19.9919V22.6737H29.2227C28.5785 24.4179 27.4182 25.9421 25.885 27.0578L25.8875 27.0563L30.9426 31.1784C30.5849 31.4916 36.3253 27.3954 36.3253 19.5258C36.3253 18.4705 36.2126 17.4403 36.0076 16.4432Z" fill="#1976D2"/>
</g>
</svg>
